/* XPM */
static char * activity_xpm[] = {
"20 20 6 1",
" 	c None",
".	c #A6ACCD",
"+	c #A5ACCD",
"@	c #A6ACCE",
"#	c #A6ABCD",
"$	c #A6ADCD",
"                    ",
"                    ",
"       .            ",
"      +.@           ",
"      ...           ",
"      .@.           ",
"     +. .@          ",
"     .# @.          ",
"     .   .          ",
" #$$..   .@    $$$# ",
" #$$$    @.   ..$$# ",
"          .   .     ",
"          .@ +.     ",
"          @. .#     ",
"           .@.      ",
"           ...      ",
"           @.#      ",
"            .       ",
"                    ",
"                    "};
