/* XPM */
static char * activity_xpm[] = {
"24 24 4 1",
" 	c None",
".	c #80CBC3",
"+	c #80CBC4",
"@	c #7FCAC5",
"                        ",
"                        ",
"        ..              ",
"        ++              ",
"       +++.             ",
"       +++.             ",
"       ++++             ",
"      ++@.+.            ",
"      ++  +.            ",
"      ++  ++            ",
"     ++@  .+.           ",
" ++++++    ++    .+++++ ",
" ++++++    ++    ++++++ ",
"           .+.  ++@     ",
"            +.  ++      ",
"            ++  ++      ",
"            .+.++@      ",
"             ++++       ",
"             ++++       ",
"             .++@       ",
"              ++        ",
"              ++        ",
"                        ",
"                        "};
