/* XPM */
static char * arrow_right_xpm[] = {
"24 24 3 1",
" 	c None",
".	c #80CBC4",
"+	c #80CCC4",
"                        ",
"                        ",
"                        ",
"                        ",
"           ..           ",
"           ...          ",
"            ...         ",
"             ...        ",
"              ...       ",
"               ...      ",
"                ...     ",
"    ...............+    ",
"    ...............+    ",
"                ...     ",
"               ...      ",
"              ...       ",
"             ...        ",
"            ...         ",
"           ...          ",
"           ..           ",
"                        ",
"                        ",
"                        ",
"                        "};
