/* XPM */
static char * arrow_right_xpm[] = {
"20 20 6 1",
" 	c None",
".	c #A6ACCD",
"+	c #A6ADCD",
"@	c #A6ACCC",
"#	c #A6ACCE",
"$	c #A6ABCB",
"                    ",
"                    ",
"                    ",
"                    ",
"         ..         ",
"          ..        ",
"           ..       ",
"            ..      ",
"             ..     ",
"    +++++++++@#.$   ",
"    +++++++++@#.$   ",
"             ..     ",
"            ..      ",
"           ..       ",
"          ..        ",
"         ..         ",
"                    ",
"                    ",
"                    ",
"                    "};
