/* XPM */
static char * battery_charging_xpm[] = {
"20 20 11 1",
" 	c None",
".	c #676E94",
"+	c #676E95",
"@	c #666E96",
"#	c #676D95",
"$	c #676F95",
"%	c #686E95",
"&	c #676E96",
"*	c #676F94",
"=	c #666E95",
"-	c #686F95",
"                    ",
"                    ",
"                    ",
"                    ",
" ..++@   #  +++     ",
"#++++@  ++  ++$+    ",
"++     ++      +.   ",
"++    %+       ++   ",
"++    .&       ++  *",
"++   ++#+++    ++ ++",
"++   #+++++    ++ ++",
"++       +&    ++  *",
"++      #+     ++   ",
"++     *+=     +.   ",
"@+++#  +&  +++%+    ",
" -.+#  +   +++%     ",
"                    ",
"                    ",
"                    ",
"                    "};
