/* XPM */
static char * calendar_xpm[] = {
"24 24 7 1",
" 	c None",
".	c #F78C6D",
"+	c #F78C6C",
"@	c #F88C6B",
"#	c #F88C6C",
"$	c #F88D6D",
"%	c #F78D6C",
"                        ",
"       ..      ..       ",
"       ++      ++       ",
"   @++++++++++++++++#   ",
"  @++++++++++++++++++$  ",
"  ++   ++      ++   ++  ",
"  ++   ..      ..   ++  ",
"  ++                ++  ",
"  ++                ++  ",
"  ++++++++++++++++++++  ",
"  ++++++++++++++++++++  ",
"  ++                ++  ",
"  ++                ++  ",
"  ++                ++  ",
"  ++                ++  ",
"  ++                ++  ",
"  ++                ++  ",
"  ++                ++  ",
"  ++                ++  ",
"  ++                ++  ",
"  ++                ++  ",
"  $++++++++++++++++++%  ",
"   #+++++++++++++++++   ",
"                        "};
