/* XPM */
static char * calendar_xpm[] = {
"20 20 7 1",
" 	c None",
".	c #A6ACCD",
"+	c #A5ACCE",
"@	c #A6ADCD",
"#	c #A7ACCD",
"$	c #A5ACCD",
"%	c #A5ABCD",
"                    ",
"      .      .      ",
"      .+    +.      ",
"  ...............@  ",
"  .@  .      .  #.  ",
"  .   $      $   .  ",
"  .              .  ",
"  .%            %.  ",
"  ................  ",
"  .              .  ",
"  .              .  ",
"  .              .  ",
"  .              .  ",
"  .              .  ",
"  .              .  ",
"  .              .  ",
"  .              .  ",
"  ..            ..  ",
"   ..............   ",
"                    "};
