/* XPM */
static char * clock_xpm[] = {
"24 24 7 1",
" 	c None",
".	c #8ADEFF",
"+	c #89DDFF",
"@	c #88DDFF",
"#	c #8ADDFF",
"$	c #89DCFF",
"%	c #89DEFF",
"                        ",
"         .++++.         ",
"       @+++++++++       ",
"     #+++      @++#     ",
"    @++          ++@    ",
"   #+$     ++     ++#   ",
"   ++      ++      ++   ",
"  @+       ++       ++  ",
"  ++       ++       ++  ",
" .+        ++        +@ ",
" ++        ++        ++ ",
" ++        ++        ++ ",
" ++        %+++      +@ ",
" ++          +++%    ++ ",
" ++            #+    ++ ",
"  +@                #+  ",
"  ++                ++  ",
"   ++              ++   ",
"   +++            ++#   ",
"    @++          +++    ",
"     #+++      #+++     ",
"       ++++++++++       ",
"         @#++#@         ",
"                        "};
