/* XPM */
static char * cpu_xpm[] = {
"24 24 7 1",
" 	c None",
".	c #F17078",
"+	c #F07178",
"@	c #EF7178",
"#	c #F07277",
"$	c #F07078",
"%	c #F07179",
"        ..    ..        ",
"        ++    ++        ",
"        ++    ++        ",
"    +@++++++++++++@#    ",
"   ++++++++++++++++++   ",
"   @+              +.   ",
"   ++              ++   ",
"   ++              ++   ",
".++++   .++++++.   ++++.",
".++++   ++++++++   ++++.",
"   ++   ++    ++   ++   ",
"   ++   ++    ++   ++   ",
"   ++   ++    ++   ++   ",
".++++   ++    ++   ++++.",
".++++   ++++++++   ++++.",
"   ++   .++++++.   ++   ",
"   ++              ++   ",
"   ++              ++   ",
"   @+              +.   ",
"   +++++++++++++++++$   ",
"    #.++++++++++++.%    ",
"        ++    ++        ",
"        ++    ++        ",
"        ..    ..        "};
