/* XPM */
static char * cpu_xpm[] = {
"20 20 8 1",
" 	c None",
".	c #A6ACCD",
"+	c #A5ABCD",
"@	c #A7ACCC",
"#	c #A5ABCE",
"$	c #A6ADCD",
"%	c #A6ABCE",
"&	c #A5ABCC",
"       .    .       ",
"       .    .       ",
"      +.+  +.+      ",
"   .............@   ",
"   .            .   ",
"   .            .   ",
"  #.            .#  ",
"$...   ......   ...$",
"  #.   .    .   .#  ",
"   .   .    .   .   ",
"   .   .    .   .   ",
"%...   .    .   ...%",
"  @.   ......   .@  ",
"   .            .   ",
"   .            .   ",
"   .            .   ",
"   @.............   ",
"      &.&  &.&      ",
"       .    .       ",
"       .    .       "};
