/* XPM */
static char * hard_drive_xpm[] = {
"24 24 4 1",
" 	c None",
".	c #80CBC4",
"+	c #80CAC4",
"@	c #80CBC5",
"                        ",
"                        ",
"                        ",
"      ............      ",
"     ..............     ",
"    ..            ..    ",
"    ..            ..    ",
"   ..              ..   ",
"   ..              ..   ",
"  ..                ..  ",
"  ..                ..  ",
" +....................+ ",
" ...................... ",
" ..                  .. ",
" ..                  .. ",
" ..  ..  ..          .. ",
" ..  ..  ..          .. ",
" ..                  .. ",
" ..                  .. ",
" @....................+ ",
"  @..................+  ",
"                        ",
"                        ",
"                        "};
