/* XPM */
static char * hard_drive_xpm[] = {
"20 20 8 1",
" 	c None",
".	c #A6ADCD",
"+	c #A6ACCD",
"@	c #A7ADCD",
"#	c #A5ACCC",
"$	c #A6ABCD",
"%	c #A6ACCE",
"&	c #A7ACCE",
"                    ",
"                    ",
"                    ",
"    .++++++++++.    ",
"    +          +    ",
"   ++          ++   ",
"   +            +   ",
"  ++            ++  ",
"  +              +  ",
" @+#............#+@ ",
" +................+ ",
" +                + ",
" +                + ",
" +  $%  +         + ",
" +                + ",
" ++              $+ ",
" .++++++++++++++++& ",
"                    ",
"                    ",
"                    "};
