/* XPM */
static char * haskell_logo_xpm[] = {
"20 20 4 1",
" 	c None",
".	c #453A62",
"+	c #5E5086",
"@	c #8F4E8B",
"                    ",
"                    ",
"                    ",
"                    ",
" ... ++++           ",
"  ... +++           ",
"  .... +++          ",
"   ... ++++ @@@@@@@ ",
"    ... +++  @@@@@@ ",
"    .... +++  @@@@  ",
"     ... ++++       ",
"    ... +++++  @@@@ ",
"   ...  ++++++ @@@@ ",
"   ... +++  +++     ",
"  ... +++   +++     ",
" ...  +++    +++    ",
"                    ",
"                    ",
"                    ",
"                    "};
