/* XPM */
static char * NewTux_xpm[] = {
"20 20 129 2",
"  	c None",
". 	c #989898",
"+ 	c #A1A1A1",
"@ 	c #646464",
"# 	c #5B5B5B",
"$ 	c #626262",
"% 	c #616161",
"& 	c #565656",
"* 	c #000000",
"= 	c #707070",
"- 	c #333333",
"; 	c #8B8B8C",
"> 	c #656564",
", 	c #7A736D",
"' 	c #B89472",
") 	c #9C8472",
"! 	c #9A948C",
"~ 	c #DCA33E",
"{ 	c #FFCD6D",
"] 	c #FDC04F",
"^ 	c #C08D34",
"/ 	c #CCAB63",
"( 	c #FCDB1D",
"_ 	c #F9D457",
": 	c #CBB590",
"< 	c #CFCCC7",
"[ 	c #EADFCD",
"} 	c #EBE6DF",
"| 	c #DFDBD4",
"1 	c #333230",
"2 	c #1C1C1C",
"3 	c #4E4D4C",
"4 	c #CECBC8",
"5 	c #D9D7D4",
"6 	c #D7D5D2",
"7 	c #CFCCC9",
"8 	c #888684",
"9 	c #212222",
"0 	c #454545",
"a 	c #3D3E3E",
"b 	c #9B9B9C",
"c 	c #EBEBEB",
"d 	c #F0F0F0",
"e 	c #E6E6E6",
"f 	c #B6B6B7",
"g 	c #252626",
"h 	c #3A3A3A",
"i 	c #373736",
"j 	c #383838",
"k 	c #D0D1D1",
"l 	c #E3E4E4",
"m 	c #D1D1D1",
"n 	c #6B6B6B",
"o 	c #38393A",
"p 	c #292929",
"q 	c #303030",
"r 	c #73716F",
"s 	c #D8D5D2",
"t 	c #DEDCD9",
"u 	c #D3D1CD",
"v 	c #ABA8A4",
"w 	c #5E5D5C",
"x 	c #111111",
"y 	c #7C4C1F",
"z 	c #A39C94",
"A 	c #DCD6CD",
"B 	c #DED8D0",
"C 	c #DDD7CF",
"D 	c #DDD2C6",
"E 	c #81746B",
"F 	c #555352",
"G 	c #3D3B38",
"H 	c #FED09D",
"I 	c #C99059",
"J 	c #ABA59B",
"K 	c #E6DCCF",
"L 	c #E7DDCF",
"M 	c #EDC39F",
"N 	c #AE8556",
"O 	c #8E6E48",
"P 	c #EC9D3F",
"Q 	c #F69E3D",
"R 	c #FFC381",
"S 	c #FFCC92",
"T 	c #FCBF7C",
"U 	c #6B4012",
"V 	c #CCC1B2",
"W 	c #F3E6D3",
"X 	c #F3E6D4",
"Y 	c #F6BC88",
"Z 	c #FFBD6B",
"` 	c #FFC56B",
" .	c #FFBF37",
"..	c #F8B232",
"+.	c #FFBF48",
"@.	c #FFC46B",
"#.	c #FFBF6D",
"$.	c #E59D4C",
"%.	c #E6D4BE",
"&.	c #FCECD6",
"*.	c #FBEBD5",
"=.	c #F3B56D",
"-.	c #FFBE3D",
";.	c #FFCA36",
">.	c #FFD220",
",.	c #FACE23",
"'.	c #F8CD22",
").	c #FFD81C",
"!.	c #FFD028",
"~.	c #FFCA3A",
"{.	c #FFC03B",
"].	c #BF915D",
"^.	c #B3A89A",
"/.	c #B2A799",
"(.	c #75695E",
"_.	c #F3B82B",
":.	c #FFD022",
"<.	c #FFDD19",
"[.	c #F8D21E",
"}.	c #EEC521",
"|.	c #FBD71B",
"1.	c #FDD61D",
"2.	c #B38220",
"3.	c #281700",
"4.	c #2C1900",
"5.	c #432707",
"6.	c #F5C922",
"7.	c #FFE612",
"8.	c #F1CE1E",
"                                        ",
"                  . + @                 ",
"                # $ % & *               ",
"                = - ; > *               ",
"                , ' ) ! *               ",
"                ~ { ] ^ *               ",
"                / ( _ : *               ",
"              * < [ } | 1 2             ",
"              3 4 5 6 7 8 9 0           ",
"            a b c d d e f g h           ",
"          i j k l l l l m n o p         ",
"          q r s t t t t u v w x         ",
"          y z A B B B C D E F G         ",
"          H I J K L L L M N O P         ",
"      Q R S T U V W W X Y Z `  .        ",
"      ..+.@.#.$.%.&.&.*.=.-.;.>.,.      ",
"      '.).!.~.{.].^./.(._.:.<.[.        ",
"          }.|.1.2.3.4.5.6.7.8.          ",
"                                        ",
"                                        "};
