/* XPM */
static char * nix_snowflake_xpm[] = {
"20 20 92 2",
"  	c None",
". 	c #5176C1",
"+ 	c #5275C0",
"@ 	c #7EBAE4",
"# 	c #7DBAE3",
"$ 	c #7DBAE4",
"% 	c #5075BF",
"& 	c #7EBAE3",
"* 	c #7EB8E3",
"= 	c #5177C1",
"- 	c #5074BE",
"; 	c #7EB9E3",
"> 	c #7EB8E2",
", 	c #7EB7E2",
"' 	c #5277C3",
") 	c #4F73BB",
"! 	c #4D70B8",
"~ 	c #4C6FB5",
"{ 	c #5278B9",
"] 	c #7CB6E1",
"^ 	c #7EB7E1",
"/ 	c #5377C3",
"( 	c #5176C2",
"_ 	c #4E72BB",
": 	c #4D70B6",
"< 	c #4B6DB4",
"[ 	c #4869AE",
"} 	c #72A6D6",
"| 	c #7EB6E1",
"1 	c #7DB6E2",
"2 	c #5277C2",
"3 	c #6591CE",
"4 	c #6691CD",
"5 	c #628ECA",
"6 	c #7FB6E1",
"7 	c #7EB4DF",
"8 	c #5176C3",
"9 	c #7EB3DF",
"0 	c #7EB2DD",
"a 	c #7EB2DE",
"b 	c #587FC7",
"c 	c #7DB1DE",
"d 	c #72A3D6",
"e 	c #4F74C0",
"f 	c #7EB5E0",
"g 	c #5278BF",
"h 	c #4F73BD",
"i 	c #5175C0",
"j 	c #5177C3",
"k 	c #5277C4",
"l 	c #7EBBE5",
"m 	c #7EB9E4",
"n 	c #77AEDB",
"o 	c #4E70B8",
"p 	c #4F72BA",
"q 	c #4F73BC",
"r 	c #5276C2",
"s 	c #587FBB",
"t 	c #4E71B3",
"u 	c #4C6EB5",
"v 	c #4D6FB5",
"w 	c #7AB2E0",
"x 	c #4E6FB4",
"y 	c #4C6EB3",
"z 	c #4A6BB0",
"A 	c #4B6DB3",
"B 	c #5A80C3",
"C 	c #4B6CB4",
"D 	c #5277BC",
"E 	c #6C9ECE",
"F 	c #6B9CCD",
"G 	c #6FA3D4",
"H 	c #587EC0",
"I 	c #4E70BA",
"J 	c #608CCA",
"K 	c #7EB1DD",
"L 	c #5074BC",
"M 	c #5277C0",
"N 	c #76A8D8",
"O 	c #7FB4DF",
"P 	c #7FB6E0",
"Q 	c #7FBBE4",
"R 	c #5378C1",
"S 	c #5074BF",
"T 	c #5479C3",
"U 	c #5C87CB",
"V 	c #5277C1",
"W 	c #547AC4",
"X 	c #5378C3",
"Y 	c #5C88CC",
"Z 	c #5A83CA",
"` 	c #567DC6",
"                                        ",
"          . +     @ @ #   $ @           ",
"          . %       @ @   & *           ",
"          = -       @ @ ; > ,           ",
"      ' ' = - ) ! ~ { ] , ^             ",
"    / ' ' ( - _ : < [ } | 1       2     ",
"          3 4 5         6 7     / 8     ",
"          9 0             a 9 b ' '     ",
"          7 7             c d e 2       ",
"$ * > ^ | f                 g h % i j k ",
"l m ; > > n                 o p q - i r ",
"      @ * s t             u v           ",
"    @ @ w x y             z A           ",
"    & @   B C D         E F G           ",
"            H I J K a f | > ; @ @       ",
"            L - M N O P , > ; Q Q       ",
"          R S T r U       > ;           ",
"          V W   W '       > ;           ",
"          X Y   Z ' `     & ;           ",
"                                        "};
