/* XPM */
static char * volume_x_xpm[] = {
"20 20 8 1",
" 	c None",
".	c #F07178",
"+	c #F07179",
"@	c #F07079",
"#	c #EF7178",
"$	c #F07278",
"%	c #EF7078",
"&	c #F07077",
"                    ",
"                    ",
"                    ",
"                    ",
"        ..          ",
"      ....          ",
"     .. ..          ",
" .....  +.   @.   ..",
" ..     +.    .. .. ",
" .      +.     .#$  ",
" .      +.     %&+  ",
" ..     +.    .. .. ",
" .....  +.   @.   ..",
"     .. ..          ",
"      ....          ",
"        ..          ",
"                    ",
"                    ",
"                    ",
"                    "};
