/* XPM */
static char * volume_x_xpm[] = {
"24 24 5 1",
" 	c None",
".	c #83AAFF",
"+	c #81AAFF",
"@	c #82AAFF",
"#	c #82A9FF",
"                        ",
"                        ",
"                        ",
"                        ",
"          .+            ",
"         @@@            ",
"        @@@@            ",
"      @@@ @@            ",
" +@@@@@@  @@    +@    @+",
" @@@@@.   @@    @@.  .@@",
" @@       @@     @@..@@ ",
" @@       @@      #@@@  ",
" @@       @@      #@@@  ",
" @@       @@     @@.@@@ ",
" @@@@@.   @@    @@.  .@@",
" +@@@@@@  @@    +@    @+",
"      @@@ @@            ",
"        @@@@            ",
"         @@@            ",
"          .+            ",
"                        ",
"                        ",
"                        ",
"                        "};
