/* XPM */
static char * volume_2_xpm[] = {
"24 24 4 1",
" 	c None",
".	c #83AAFF",
"+	c #81AAFF",
"@	c #82AAFF",
"                        ",
"                        ",
"                        ",
"                        ",
"          .+      @@    ",
"         @@@      @@@   ",
"        @@@@       @@   ",
"      @@@ @@        @@  ",
" +@@@@@@  @@   @.   @@  ",
" @@@@@.   @@   @@    @@ ",
" @@       @@    @@   @@ ",
" @@       @@    @@   @@ ",
" @@       @@    @@   @@ ",
" @@       @@    @+   @@ ",
" @@@@@.   @@   @@    @. ",
" +@@@@@@  @@   @.   @@  ",
"      @@@ @@        @@  ",
"        @@@@       @@   ",
"         @@@      @@@   ",
"          .+      @@    ",
"                        ",
"                        ",
"                        ",
"                        "};
