/* XPM */
static char * volume_2_xpm[] = {
"20 20 10 1",
" 	c None",
".	c #A6ACCD",
"+	c #A6ADCD",
"@	c #A6ACCE",
"#	c #A5ACCD",
"$	c #A6ABCD",
"%	c #A7ACCC",
"&	c #A7ADCE",
"*	c #A7ACCD",
"=	c #A7ACCE",
"                    ",
"                    ",
"                    ",
"                    ",
"        ..     +.   ",
"      @...      +.  ",
"     #. $.       .  ",
" .....  ..  %.   .. ",
" .&     ..   #@  *. ",
" .      ..   #.   . ",
" .      ..   #.   . ",
" .&     ..   #.  $. ",
" .....  ..  $.   .= ",
"     #. $.       .  ",
"      @...      .$  ",
"        ..     +.   ",
"                    ",
"                    ",
"                    ",
"                    "};
